<svg width="40" height="40" viewBox="0 0 40 40" fill="none" xmlns="http://www.w3.org/2000/svg">
<circle cx="20" cy="20" r="20" fill="#F6F6F6"/>
<path d="M19.3914 16.0234C18.5408 16.0234 17.8511 16.7131 17.8511 17.5637V18.7132H20.9087V17.5637C20.9317 16.6901 20.242 16.0234 19.3914 16.0234Z" fill="#373737"/>
<path d="M19.943 21.1279C20.1039 20.9899 20.1958 20.783 20.1958 20.5531C20.1958 20.1163 19.851 19.7715 19.4142 19.7715C18.9774 19.7715 18.6326 20.1163 18.6326 20.5531C18.6326 20.783 18.7245 20.9899 18.8854 21.1279L18.3107 22.3923C18.2877 22.4383 18.2877 22.4842 18.3107 22.5302C18.3337 22.5762 18.3797 22.5992 18.4256 22.5992L20.3338 22.5762C20.3798 22.5762 20.4257 22.5532 20.4487 22.5072C20.4717 22.4613 20.4717 22.4153 20.4487 22.3923L19.943 21.1279Z" fill="#373737"/>
<path d="M19.3453 12C13.6439 12 9 15.4484 9 19.7015C9 21.3567 9.71268 22.897 10.9081 24.1615C10.6552 24.8971 10.0575 25.6328 9.32185 25.9317C8.21836 26.3455 10.1495 28.0237 13.5749 26.0696C15.2302 26.8972 17.2073 27.38 19.3453 27.38C25.0467 27.38 29.6906 23.9316 29.6906 19.6785C29.6906 15.4254 25.0467 12 19.3453 12ZM22.6788 22.7821C22.6788 23.3568 22.219 23.8166 21.6442 23.8166H17.1383C16.5636 23.8166 16.1038 23.3568 16.1038 22.7821V19.7475C16.1038 19.2877 16.4026 18.8969 16.8394 18.7589V17.5635C16.8394 16.1381 17.9889 14.9886 19.4143 14.9886C20.8396 14.9886 21.9891 16.1381 21.9891 17.5635V18.7589C22.4029 18.8969 22.7248 19.2877 22.7248 19.7475V22.7821H22.6788Z" fill="#373737"/>
</svg>
