<svg width="40" height="40" viewBox="0 0 40 40" fill="none" xmlns="http://www.w3.org/2000/svg">
<circle cx="20" cy="20" r="20" fill="#F6F6F6"/>
<path d="M28.3122 19.9982C28.3122 20.435 28.283 20.8718 28.2248 21.3063C28.2405 21.1876 28.2562 21.0689 28.2718 20.9479C28.1576 21.7879 27.9314 22.6099 27.6044 23.3916C27.6492 23.2841 27.694 23.1766 27.7388 23.0713C27.4162 23.8351 26.9951 24.5518 26.4912 25.2104C26.5606 25.1208 26.6323 25.0289 26.7017 24.9393C26.191 25.5979 25.5997 26.1892 24.9412 26.6999C25.0308 26.6304 25.1226 26.5588 25.2122 26.4893C24.5559 26.9933 23.8369 27.4144 23.0731 27.7369C23.1806 27.6921 23.2881 27.6473 23.3934 27.6025C22.6117 27.9318 21.7897 28.1558 20.9497 28.27C21.0684 28.2543 21.1872 28.2387 21.3081 28.223C20.4413 28.3395 19.561 28.3395 18.6942 28.223C18.8129 28.2387 18.9316 28.2543 19.0526 28.27C18.2126 28.1558 17.3906 27.9296 16.6089 27.6025C16.7164 27.6473 16.8239 27.6921 16.9292 27.7369C16.1654 27.4144 15.4486 26.9933 14.7901 26.4893C14.8797 26.5588 14.9715 26.6304 15.0611 26.6999C14.4026 26.1892 13.8113 25.5979 13.3006 24.9393C13.37 25.0289 13.4417 25.1208 13.5111 25.2104C13.0072 24.5541 12.5861 23.8351 12.2635 23.0713C12.3083 23.1788 12.3531 23.2863 12.3979 23.3916C12.0687 22.6099 11.8447 21.7879 11.7304 20.9479C11.7461 21.0666 11.7618 21.1853 11.7775 21.3063C11.661 20.4395 11.661 19.5592 11.7775 18.6924C11.7618 18.8111 11.7461 18.9298 11.7304 19.0507C11.8447 18.2108 12.0709 17.3888 12.3979 16.6071C12.3531 16.7146 12.3083 16.8221 12.2635 16.9274C12.5861 16.1636 13.0072 15.4468 13.5111 14.7883C13.4417 14.8779 13.37 14.9697 13.3006 15.0593C13.8113 14.4008 14.4026 13.8095 15.0611 13.2988C14.9715 13.3682 14.8797 13.4399 14.7901 13.5093C15.4464 13.0053 16.1654 12.5843 16.9292 12.2617C16.8217 12.3065 16.7141 12.3513 16.6089 12.3961C17.3906 12.0668 18.2126 11.8429 19.0526 11.7286C18.9339 11.7443 18.8151 11.76 18.6942 11.7757C19.561 11.6592 20.4413 11.6592 21.3081 11.7757C21.1894 11.76 21.0707 11.7443 20.9497 11.7286C21.7897 11.8429 22.6117 12.0691 23.3934 12.3961C23.2859 12.3513 23.1784 12.3065 23.0731 12.2617C23.8369 12.5843 24.5537 13.0053 25.2122 13.5093C25.1226 13.4399 25.0308 13.3682 24.9412 13.2988C25.5997 13.8095 26.191 14.4008 26.7017 15.0593C26.6323 14.9697 26.5606 14.8779 26.4912 14.7883C26.9951 15.4446 27.4162 16.1636 27.7388 16.9274C27.694 16.8198 27.6492 16.7123 27.6044 16.6071C27.9336 17.3888 28.1576 18.2108 28.2718 19.0507C28.2562 18.932 28.2405 18.8133 28.2248 18.6924C28.283 19.1247 28.3122 19.5614 28.3122 19.9982C28.3122 20.3431 28.4622 20.7038 28.7064 20.9479C28.9393 21.1809 29.3223 21.3556 29.6561 21.3421C30.0033 21.3264 30.3639 21.2122 30.6058 20.9479C30.8477 20.6858 31 20.3611 31 19.9982C30.9978 18.8693 30.8275 17.7203 30.4781 16.6474C30.1399 15.6103 29.6583 14.6046 29.0222 13.7154C28.6773 13.2316 28.3032 12.7657 27.8911 12.3379C27.4767 11.9078 27.0198 11.5338 26.5449 11.1709C25.6714 10.5057 24.6948 10.0062 23.6644 9.62987C22.6162 9.2491 21.4918 9.05199 20.3786 9.00719C19.8567 8.98703 19.3325 9.00943 18.8151 9.07215C18.1992 9.1483 17.5922 9.24686 16.9941 9.41709C15.9436 9.71499 14.9178 10.1764 14.0062 10.7789C13.1035 11.3747 12.2703 12.0937 11.5826 12.9292C11.2108 13.3816 10.8614 13.852 10.559 14.356C10.2477 14.8734 10.0013 15.4177 9.77057 15.9754C9.34275 17.0169 9.11653 18.1279 9.02917 19.2479C8.94182 20.3835 9.05381 21.5504 9.3226 22.6569C9.44131 23.143 9.5981 23.6201 9.79073 24.0815C10.0214 24.637 10.2723 25.179 10.5859 25.6942C11.1414 26.608 11.8357 27.4592 12.6354 28.1692C13.4484 28.8905 14.3556 29.5154 15.3478 29.9634C15.8988 30.212 16.4633 30.436 17.0479 30.5972C17.6459 30.763 18.2552 30.8615 18.8711 30.9332C20.0112 31.0654 21.1715 30.9847 22.2936 30.754C23.3621 30.5368 24.4058 30.1313 25.3578 29.6027C26.3008 29.0786 27.181 28.3977 27.9247 27.6182C28.6705 26.8365 29.3223 25.9383 29.8039 24.9685C30.2989 23.974 30.6663 22.9145 30.8342 21.817C30.9261 21.2145 30.991 20.6097 30.991 20.0004C30.991 19.6555 30.841 19.2926 30.5968 19.0507C30.3728 18.8156 29.9898 18.6386 29.6561 18.6543C29.3089 18.67 28.9483 18.7842 28.7064 19.0485C28.4645 19.3106 28.3122 19.6331 28.3122 19.9982Z" fill="black"/>
<path d="M25.8773 12.2213C25.7541 12.3445 25.6331 12.4654 25.5099 12.5886C25.1784 12.9201 24.8492 13.2494 24.5177 13.5809C24.0272 14.0714 23.5366 14.5619 23.0439 15.0547C22.4481 15.6505 21.85 16.2486 21.2542 16.8444C20.6002 17.4984 19.9484 18.1502 19.2943 18.8042C18.6313 19.4672 17.9706 20.128 17.3076 20.791C16.6916 21.407 16.0779 22.0207 15.4619 22.6367C14.94 23.1585 14.4181 23.6804 13.8963 24.2023C13.5222 24.5764 13.1481 24.9504 12.7763 25.3223C12.5994 25.4992 12.4202 25.6762 12.2455 25.8531C12.2388 25.8598 12.2298 25.8688 12.2231 25.8755C11.9789 26.1196 11.8289 26.4803 11.8289 26.8252C11.8289 27.1545 11.9744 27.5487 12.2231 27.7749C12.4784 28.0101 12.8144 28.1848 13.1728 28.1691C13.5289 28.1534 13.8649 28.0325 14.1225 27.7749C14.2457 27.6517 14.3666 27.5308 14.4898 27.4076C14.8213 27.0761 15.1506 26.7468 15.4821 26.4153C15.9726 25.9248 16.4631 25.4342 16.9559 24.9415C17.5517 24.3457 18.1498 23.7476 18.7456 23.1518C19.3996 22.4978 20.0514 21.846 20.7054 21.1919C21.3684 20.5289 22.0292 19.8682 22.6922 19.2052C23.3082 18.5892 23.9219 17.9755 24.5378 17.3595C25.0597 16.8376 25.5816 16.3158 26.1035 15.7939C26.4776 15.4198 26.8516 15.0458 27.2234 14.6739C27.4004 14.497 27.5796 14.32 27.7543 14.1431C27.761 14.1364 27.77 14.1274 27.7767 14.1207C28.0208 13.8765 28.1709 13.5159 28.1709 13.171C28.1709 12.8417 28.0253 12.4475 27.7767 12.2213C27.5213 11.9861 27.1854 11.8114 26.827 11.8271C26.4708 11.8428 26.1349 11.9637 25.8773 12.2213Z" fill="black"/>
</svg>
