<svg width="99" height="74" viewBox="0 0 99 74" fill="none" xmlns="http://www.w3.org/2000/svg">
<path d="M39.9993 11.0844C40.8621 11.0844 41.5618 10.3847 41.5618 9.52186V1.5625C41.5618 0.699687 40.8622 0 39.9993 0C39.1363 0 38.4368 0.699531 38.4368 1.5625V9.52186C38.4369 10.3847 39.1365 11.0844 39.9993 11.0844Z" fill="black"/>
<path d="M28.2518 13.6513C28.5488 14.1227 29.0562 14.3808 29.5751 14.3808C29.8598 14.3808 30.148 14.303 30.4066 14.14C31.1366 13.68 31.3554 12.7152 30.8954 11.985L26.7323 5.37956C26.2721 4.64956 25.3073 4.43065 24.5774 4.89081C23.8474 5.35081 23.6287 6.31565 24.0887 7.04581L28.2518 13.6513Z" fill="black"/>
<path d="M49.5969 14.1404C49.8555 14.303 50.1435 14.3807 50.4278 14.3807C50.9469 14.3807 51.4546 14.1222 51.7516 13.6505L55.9103 7.04506C56.37 6.31475 56.1508 5.35022 55.4205 4.89022C54.6899 4.43069 53.7256 4.65006 53.2658 5.38006L49.1071 11.9855C48.6474 12.716 48.8667 13.6805 49.5969 14.1404Z" fill="black"/>
<path d="M79.4963 36.7852L76.7814 31.9891C76.3561 31.2378 75.4027 30.9738 74.6522 31.3991C73.9011 31.8242 73.637 32.7775 74.0622 33.5283L76.7758 38.3224C76.9117 38.5633 76.8764 38.7956 76.8433 38.9127C76.8114 39.0253 76.7236 39.2333 76.4939 39.3602L72.3099 41.6778C71.9381 41.8831 71.453 41.7535 71.2503 41.396L70.1874 39.5156C70.183 39.5072 70.178 39.4994 70.1734 39.4911L59.1844 20.0546C59.0486 19.8154 59.083 19.586 59.1155 19.4705C59.1469 19.3588 59.2341 19.1524 59.4638 19.0254L63.6528 16.7072C64.0292 16.4988 64.5025 16.6254 64.7083 16.99L67.1574 21.3171C67.5825 22.0682 68.5361 22.3321 69.2867 21.9072C70.0378 21.4822 70.3019 20.5288 69.8769 19.7779L67.4289 15.4527C66.3849 13.6018 64.0127 12.9379 62.1405 13.9727L57.9516 16.2908C57.0452 16.7918 56.3903 17.6197 56.1078 18.6227C55.8413 19.5683 55.9366 20.5555 56.373 21.4219L54.0655 22.0907C53.0825 22.375 52.486 22.5293 52.1549 22.5293C52.1535 22.5293 52.1522 22.5293 52.151 22.5293C51.923 22.5285 51.6744 22.4414 50.9649 22.1727C50.643 22.0508 50.2422 21.8989 49.7496 21.7271L45.6613 20.2978C43.4002 19.5082 42.3804 19.5507 40.9029 19.6855L33.9316 20.3094C30.7536 20.591 28.7275 21.3078 27.6091 22.5511L23.6363 21.4C24.0638 20.5374 24.1555 19.5597 23.8915 18.6227C23.609 17.6204 22.9546 16.7925 22.0491 16.2916L17.8626 13.9724C15.9888 12.9366 13.6152 13.6008 12.571 15.4513L0.507886 36.783C-0.00851951 37.6922 -0.136332 38.7497 0.148355 39.7608C0.431168 40.7649 1.08585 41.5936 1.99054 42.0939L6.1771 44.4128C6.77569 44.7438 7.426 44.9009 8.06772 44.9009C9.431 44.9009 10.7563 44.1917 11.4687 42.9341L11.911 42.1516C13.1182 42.683 14.1318 43.455 14.8226 44.3691C14.1479 45.1575 13.7229 46.1305 13.6037 47.1888C13.4462 48.5883 13.8415 49.9614 14.7168 51.0559C15.5846 52.1411 16.8255 52.8258 18.2132 52.987C18.0663 54.3747 18.4632 55.7344 19.3318 56.8167C20.2296 57.9392 21.4985 58.5941 22.8258 58.7486C22.6796 60.1342 23.0751 61.4927 23.941 62.5756C24.8083 63.6631 26.0496 64.3492 27.4386 64.5105C27.2916 65.8992 27.6885 67.2597 28.5571 68.3422C29.5924 69.6366 31.1208 70.3105 32.6638 70.3103C33.8157 70.3103 34.9757 69.9347 35.9441 69.1612L39.2157 66.5434C39.4755 66.3361 39.7116 66.1069 39.9239 65.86L41.7927 67.3528C42.7591 68.1241 43.9164 68.4987 45.0668 68.4986C46.6105 68.4984 48.1414 67.8237 49.1782 66.5281C49.7246 65.845 50.0705 65.0653 50.2267 64.2605C50.7732 64.4495 51.35 64.5472 51.9382 64.547C52.1353 64.547 52.3338 64.5361 52.5328 64.5141C53.9328 64.3586 55.1847 63.6702 56.0546 62.5792C56.9247 61.4952 57.3216 60.1356 57.1749 58.7481C58.5013 58.5933 59.7708 57.9386 60.6713 56.8166C61.5681 55.6952 61.9281 54.3145 61.7872 52.9867C63.1741 52.8252 64.4144 52.1406 65.2802 51.058C66.1561 49.9664 66.5531 48.5953 66.398 47.1969C66.2802 46.1353 65.8549 45.1591 65.1789 44.3685C65.8677 43.4547 66.8792 42.6817 68.0872 42.1506L68.5305 42.9347C69.2424 44.1919 70.567 44.9008 71.9306 44.9008C72.5727 44.9006 73.2236 44.7435 73.8228 44.4122L78.007 42.0944C78.9114 41.5944 79.5658 40.7669 79.8497 39.7645C80.1359 38.7544 80.0108 37.6969 79.4963 36.7852ZM8.74897 41.3952C8.54585 41.7539 8.06038 41.8833 7.69022 41.6785L3.50382 39.3597C3.27523 39.2331 3.18804 39.026 3.15616 38.9136C3.12351 38.7972 3.08867 38.5661 3.22648 38.3239L15.2915 16.988C15.4296 16.7432 15.6899 16.606 15.9602 16.606C16.0918 16.606 16.2255 16.6383 16.349 16.7066L20.5343 19.025C20.5347 19.0254 20.5352 19.0257 20.5357 19.0258C20.7647 19.1525 20.8518 19.3589 20.8833 19.4707C20.9158 19.5861 20.9502 19.8155 20.8129 20.0574L8.74897 41.3952ZM20.1511 49.4358C19.7105 49.7888 19.1541 49.9483 18.5855 49.885C18.0166 49.8219 17.5096 49.5447 17.1574 49.1044C16.8044 48.663 16.6454 48.1067 16.7093 47.5383C16.7729 46.9722 17.0502 46.4677 17.493 46.1153L23.3427 41.4394C24.2608 40.7064 25.6047 40.8572 26.3385 41.7736C26.6913 42.2147 26.8505 42.77 26.7868 43.3367C26.7233 43.9016 26.4458 44.4056 26.0055 44.756C25.9958 44.7636 25.9875 44.7722 25.9782 44.7802L20.1526 49.4347C20.1521 49.435 20.1516 49.4355 20.1511 49.4358ZM21.7705 54.863C21.4179 54.4234 21.2585 53.8695 21.3215 53.3033C21.3844 52.7366 21.6621 52.2297 22.103 51.8761L22.1035 51.8758C22.1038 51.8756 22.1041 51.8753 22.1044 51.8752C22.1046 51.8752 22.1046 51.875 22.1047 51.8749L30.5307 45.143C31.4486 44.4099 32.7929 44.5595 33.5264 45.4772C33.8788 45.9177 34.038 46.4724 33.975 47.0389C33.9119 47.6061 33.6335 48.113 33.1914 48.4661L24.7677 55.1955C23.8486 55.9289 22.5049 55.7809 21.7705 54.863ZM27.8108 61.4083C27.2421 61.3451 26.7355 61.0677 26.3829 60.6255C26.0305 60.185 25.8713 59.6303 25.9343 59.0638C25.9974 58.497 26.2754 57.9906 26.7168 57.6375C26.7171 57.6372 26.7175 57.6369 26.7179 57.6366L32.5488 52.9784C32.5557 52.9731 32.5632 52.9686 32.57 52.9631C33.4857 52.2302 34.8294 52.3794 35.5638 53.2947C35.9168 53.7359 36.076 54.2922 36.0121 54.8606C35.9483 55.4267 35.671 55.9312 35.2283 56.2836L29.3788 60.9594C28.9368 61.3123 28.3797 61.4711 27.8108 61.4083ZM38.048 62.6767C37.9847 63.2434 37.7071 63.7492 37.2649 64.1023L33.9932 66.7206C33.0739 67.4542 31.7302 67.3066 30.9961 66.3884C30.6435 65.9492 30.484 65.3948 30.5469 64.8275C30.6099 64.2602 30.8872 63.7541 31.3274 63.4025C31.3279 63.4022 31.3285 63.4017 31.329 63.4014L34.5999 60.7867C34.6016 60.7853 34.6035 60.7842 34.6052 60.783C35.5235 60.0502 36.8674 60.2003 37.6011 61.1172C37.9525 61.5569 38.1114 62.1105 38.048 62.6767ZM62.8414 49.1042C62.4892 49.5445 61.9821 49.8219 61.4133 49.885C60.845 49.9489 60.2883 49.7889 59.8477 49.4358C59.8475 49.4356 59.8472 49.4355 59.8469 49.4353C59.8467 49.4352 59.8464 49.435 59.8463 49.4349L55.6653 46.0944C54.991 45.5556 54.0078 45.6656 53.4694 46.3397C52.9308 47.0138 53.0406 47.997 53.7147 48.5356L57.8942 51.875C58.8111 52.6092 58.9622 53.9505 58.2325 54.8628C57.4963 55.7803 56.1524 55.9295 55.2349 55.1947L50.6997 51.5756C50.0253 51.0375 49.0422 51.148 48.5039 51.8223C47.9658 52.4967 48.0761 53.4798 48.7507 54.0181L53.2836 57.6355C53.7253 57.9892 54.0033 58.4964 54.0664 59.0638C54.1294 59.63 53.97 60.1841 53.6144 60.627C53.263 61.0676 52.7564 61.345 52.1878 61.4083C51.6186 61.4709 51.0616 61.312 50.6213 60.9606L48.3647 59.1559C48.3608 59.1528 48.3574 59.1495 48.3535 59.1464L46.4469 57.6222L46.0905 57.3372C45.4163 56.7981 44.4332 56.9077 43.8944 57.5814C43.8271 57.6658 43.7697 57.7548 43.7225 57.8473C43.4963 58.2895 43.5 58.8081 43.7124 59.243C43.8107 59.4444 43.9522 59.6283 44.1388 59.7775L46.4077 61.592C47.3185 62.3275 47.4674 63.6642 46.7382 64.5759C46.0042 65.4933 44.6602 65.6431 43.7425 64.9111L41.1683 62.8545C41.2755 61.5172 40.8793 60.213 40.0411 59.165C39.5202 58.5139 38.8741 58.0208 38.1646 57.69C38.6846 56.9686 39.0147 56.1211 39.1172 55.2098C39.2747 53.8105 38.8794 52.4373 38.0025 51.3409C37.4814 50.6916 36.8361 50.1995 36.128 49.8695C36.6489 49.1459 36.9791 48.2967 37.0807 47.3842C37.2361 45.988 36.8405 44.6175 35.9668 43.5249C34.4633 41.6452 31.9208 41.0738 29.8047 41.9719C29.6354 41.1941 29.2893 40.4603 28.7783 39.8214C26.9693 37.5608 23.6565 37.191 21.3922 38.9975L17.2085 42.3417C16.2624 41.1344 14.9763 40.1331 13.4557 39.4191L22.0618 24.1971L26.644 25.5247C26.6649 25.7699 26.7046 26.0277 26.771 26.3008C27.8802 30.8614 32.0793 32.9864 37.7297 31.8478C42.4907 30.8899 44.4507 32.3169 48.3543 35.1596C48.7593 35.4544 49.18 35.7608 49.6205 36.0763C52.4278 38.0903 55.4278 40.4577 57.4392 42.0622L62.5111 46.1156C62.9517 46.4672 63.2291 46.9734 63.292 47.5413C63.355 48.1086 63.1956 48.663 62.8414 49.1042ZM62.7928 42.3408L59.3892 39.6206C57.35 37.9939 54.3077 35.5935 51.4413 33.5369C51.0069 33.2258 50.5927 32.9241 50.1939 32.6338C46.1461 29.6861 43.2207 27.5564 37.1132 28.7847C35.2438 29.1614 30.79 29.6019 29.8077 25.5632C29.6693 24.993 29.8099 24.7971 29.8697 24.7135C30.0786 24.4222 30.9193 23.7133 34.2082 23.4221L41.1868 22.7975C42.3239 22.6938 42.8944 22.6416 44.63 23.2478L48.7188 24.6772C49.1733 24.836 49.5368 24.9735 49.8575 25.095C51.8263 25.8408 52.348 25.8407 54.9344 25.0921L57.9488 24.2186L66.5433 39.42C65.0222 40.1336 63.7374 41.1341 62.7928 42.3408Z" fill="black"/>
<path d="M71.9641 28.2177C72.8269 28.2177 73.5266 27.5158 73.5266 26.6529C73.5266 25.7899 72.8269 25.0904 71.9641 25.0904C71.1013 25.0904 70.4016 25.79 70.4016 26.6529V26.6572C70.4016 27.5202 71.1013 28.2177 71.9641 28.2177Z" fill="black"/>
<path d="M81 69.9994L80.446 71.3934L80.9961 71.612L81.5474 71.396L81 69.9994ZM81 69.9994C81.5474 71.396 81.5483 71.3956 81.5493 71.3953L81.5515 71.3944L81.5571 71.3922L81.5722 71.3861L81.6187 71.3671C81.6567 71.3513 81.7086 71.3292 81.7735 71.3006C81.9033 71.2434 82.0852 71.1598 82.3117 71.0473C82.7646 70.8224 83.3971 70.4812 84.1489 70.0029C85.6518 69.0467 87.6388 67.538 89.621 65.3084C93.6079 60.8241 97.5 53.5061 97.5 42.1356V40.972L96.373 40.6827L81.373 36.8323L81 36.7365L80.627 36.8323L65.627 40.6827L64.5 40.972V42.1356C64.5 53.4661 68.393 60.7831 72.3778 65.276C74.3591 67.51 76.3451 69.0262 77.8469 69.9886C78.5983 70.4701 79.2303 70.8141 79.6828 71.0412C79.9091 71.1547 80.0908 71.2392 80.2204 71.297C80.2852 71.3259 80.337 71.3482 80.3749 71.3641L80.4212 71.3834L80.4363 71.3895L80.4418 71.3917L80.4441 71.3926C80.445 71.393 80.446 71.3934 81 69.9994Z" fill="#1877F2" stroke="white" stroke-width="3"/>
<path d="M79.9444 56.2042L77.4221 53.5866L77.2061 53.3624L76.9901 53.5866L76.0696 54.5418L75.869 54.75L76.0696 54.9581L79.7514 58.779L79.9874 59.0239L80.201 58.7592L86.8049 50.5716L86.971 50.3656L86.7874 50.1751L85.8669 49.2198L85.6279 48.9718L85.415 49.2426L79.9444 56.2042Z" fill="white" stroke="white" stroke-width="0.6"/>
</svg>
